<?xml version="1.0" encoding="utf-8"?><svg viewBox="0 0 54 27" xmlns="http://www.w3.org/2000/svg" xmlns:xlink="http://www.w3.org/1999/xlink"><style>:root>svg{display:none}:root>svg:target{display:block}</style><svg fill="none" viewBox="0 0 28 26" id="cart" xmlns="http://www.w3.org/2000/svg"><path d="M28 9.286h-4.755L18.25.45c-.247-.44-.785-.582-1.2-.319-.415.264-.549.835-.3 1.274l4.455 7.88H6.795l4.455-7.88c.249-.44.115-1.01-.3-1.274-.416-.264-.952-.12-1.2.319L4.755 9.286H0v1.857h1.9l2.222 12.584C4.354 25.044 5.44 26 6.702 26h14.595c1.263 0 2.348-.956 2.58-2.273l2.224-12.584H28V9.286zm-5.843 14.1c-.077.439-.438.757-.86.757H6.703c-.422 0-.783-.318-.86-.758L3.678 11.143h20.642l-2.164 12.243z" fill="green"/></svg><svg fill="red" viewBox="0 0 54 27" id="logo-grey" xmlns="http://www.w3.org/2000/svg"><path fill="url(#bpattern0)" d="M0 0h54v27H0z"/><defs><pattern id="bpattern0" patternContentUnits="objectBoundingBox" width="1" height="1"><use xmlns:xlink="http://www.w3.org/1999/xlink" xlink:href="#image0" transform="matrix(.00075 0 0 .0015 0 -.078)"/></pattern></defs></svg></svg>